<?xml version="1.0" standalone="no"?>
<!DOCTYPE svg PUBLIC "-//W3C//DTD SVG 20010904//EN"
 "http://www.w3.org/TR/2001/REC-SVG-20010904/DTD/svg10.dtd">
<svg version="1.0" xmlns="http://www.w3.org/2000/svg"
 width="946.000000pt" height="946.000000pt" viewBox="0 0 946.000000 946.000000"
 preserveAspectRatio="xMidYMid meet">
<metadata>
Created by potrace 1.14, written by Peter Selinger 2001-2017
</metadata>
<g transform="translate(0.000000,946.000000) scale(0.100000,-0.100000)"
fill="#000000" stroke="none">
<path d="M1975 9309 c-367 -20 -619 -86 -898 -237 -185 -100 -391 -270 -527
-437 -186 -228 -342 -566 -390 -848 -44 -262 -45 -330 -45 -3052 0 -2918 0
-2898 72 -3180 168 -652 645 -1143 1294 -1330 99 -28 219 -48 404 -66 166 -17
5069 -25 5432 -9 407 17 582 46 794 130 517 206 868 557 1063 1062 80 206 107
338 128 628 19 254 19 5263 0 5525 -16 223 -35 338 -78 481 -96 319 -237 557
-464 784 -195 196 -355 302 -615 409 -219 90 -384 123 -713 141 -209 11 -5244
11 -5457 -1z m5515 -508 c260 -24 373 -53 565 -145 373 -179 643 -542 715
-961 36 -213 40 -477 40 -2965 0 -2411 -4 -2725 -36 -2938 -25 -175 -108 -390
-204 -533 -125 -185 -303 -345 -486 -437 -285 -143 -385 -158 -1119 -172 -673
-12 -3827 -12 -4500 0 -652 12 -783 27 -985 110 -385 159 -647 440 -779 835
-40 121 -59 257 -71 520 -13 298 -13 4946 0 5235 13 269 31 397 77 530 135
399 397 675 787 830 156 62 308 86 626 99 304 13 5223 6 5370 -8z"/>
<path d="M2500 6360 c-118 -15 -392 -49 -607 -76 -216 -26 -393 -51 -393 -54
0 -7 894 -935 899 -933 3 1 34 85 70 187 36 101 69 188 73 191 8 8 261 -109
408 -189 629 -344 896 -679 815 -1022 -65 -276 -378 -606 -873 -921 -313 -199
-742 -427 -1104 -586 l-58 -26 51 -113 c28 -62 57 -128 65 -145 17 -39 -4 -45
234 66 515 241 1006 527 1330 777 149 115 397 363 479 479 214 304 264 610
150 905 -56 146 -195 332 -349 467 -226 199 -579 414 -941 573 -52 23 -96 43
-97 45 -3 3 103 311 133 388 9 23 -15 22 -285 -13z"/>
<path d="M6400 3700 l0 -210 -965 0 -965 0 0 -160 0 -160 965 0 965 0 0 -210
c0 -162 3 -210 13 -209 6 0 271 130 587 288 l575 289 -583 291 c-320 160 -584
291 -587 291 -3 0 -5 -94 -5 -210z"/>
</g>
</svg>
